<svg xmlns="http://www.w3.org/2000/svg" width="242" height="18.685" viewBox="0 0 242 18.685">
    <defs>
        <linearGradient id="linear-gradient" x2=".983" y1=".5" y2=".5" gradientUnits="objectBoundingBox">
            <stop offset="0" stop-color="#e61878"/>
            <stop offset="1" stop-color="#ef7d25"/>
        </linearGradient>
        <style>
            .cls-1{fill:#fff}
        </style>
    </defs>
    <g id="Group_7" transform="translate(-416 -161.157)">
        <path id="Path_1" d="M153.27.73h1.473l7.4 14.007L169.477.73h1.448V18.5h-.99V2.2l-7.578 14.37h-.457L154.291 2.2v16.3h-1.021z" class="cls-1" transform="translate(356.395 160.876)"/>
        <path id="Path_2" d="M203.694 18.5l-2.31-5.06H191l-2.29 5.06h-1.21L195.561.73h1.149l8.127 17.77zm-12.252-6.11h9.46L196.147 2z" class="cls-1" transform="translate(343.083 160.876)"/>
        <path id="Path_3" d="M233.172 18.5l-4.192-5.995a9.632 9.632 0 0 1-1.5.1h-5.18v5.922h-1.1V.73h6.282a7.644 7.644 0 0 1 5.1 1.528 5.365 5.365 0 0 1 1.791 4.321 5.94 5.94 0 0 1-1.118 3.722 5.628 5.628 0 0 1-3.251 2l4.449 6.2zm-5.665-6.967a6.4 6.4 0 0 0 4.278-1.271 4.522 4.522 0 0 0 1.509-3.662 4.382 4.382 0 0 0-1.509-3.587 6.653 6.653 0 0 0-4.278-1.222H222.3v9.778z" class="cls-1" transform="translate(329.978 160.876)"/>
        <path id="Path_4" d="M264.821 18.5h-1.344l-7.248-9.051-3.9 4.278v4.779h-1.069V.73h1.063v11.464L262.938.73h1.326l-7.248 7.877z" class="cls-1" transform="translate(318.288 160.876)"/>
        <path id="Path_5" d="M279.57.73h11.464v1.039h-10.388v7.07h9.254v1.07h-9.265v7.547h10.731V18.5H279.57z" class="cls-1" transform="translate(307.278 160.876)"/>
        <path id="Path_6" d="M302 .73h13.072v1.039h-6V18.5h-1.063V1.769H302z" class="cls-1" transform="translate(298.556 160.876)"/>
        <path id="Path_7" d="M328.86.73h1.069V18.5h-1.069z" class="cls-1" transform="translate(288.11 160.876)"/>
        <path id="Path_8" d="M353.7.73h1.045V18.5h-1.222L341.659 2.331V18.5h-1.069V.73h1.222l11.868 16.194z" class="cls-1" transform="translate(283.548 160.876)"/>
        <path id="Path_9" d="M385.191 9.7h.966v6.484a9.386 9.386 0 0 1-2.9 1.711 9.594 9.594 0 0 1-3.4.611 9.057 9.057 0 0 1-4.608-1.222 9.167 9.167 0 0 1-3.337-3.294 8.635 8.635 0 0 1-1.222-4.51 8.555 8.555 0 0 1 1.222-4.5 9.444 9.444 0 0 1 11.361-3.844 9.552 9.552 0 0 1 2.884 1.754l-.611.788a8.054 8.054 0 0 0-2.567-1.578 8.409 8.409 0 0 0-3.056-.556 8.012 8.012 0 0 0-4.1 1.106 8.25 8.25 0 0 0-2.97 2.9 7.48 7.48 0 0 0-1.106 3.978 7.7 7.7 0 0 0 1.094 4.015 8.213 8.213 0 0 0 7.064 3.991 8.409 8.409 0 0 0 2.823-.483 8.085 8.085 0 0 0 2.444-1.375V9.7z" class="cls-1" transform="translate(271.843 160.957)"/>
        <path id="Path_10" fill="url(#linear-gradient)" d="M10.67 4.386a9 9 0 0 0-2.726-.538 2.506 2.506 0 0 0-1.369.318 1.045 1.045 0 0 0-.5.941 1.283 1.283 0 0 0 .422 1 3.447 3.447 0 0 0 1.076.611c.434.159 1.063.367 1.9.611a24.652 24.652 0 0 1 3.1 1.076 5.4 5.4 0 0 1 2.1 1.693 4.608 4.608 0 0 1 .874 2.915 5.005 5.005 0 0 1-.947 3.056 5.757 5.757 0 0 1-2.609 1.913 10.138 10.138 0 0 1-3.667.642 13.4 13.4 0 0 1-4.455-.782A12.375 12.375 0 0 1 0 15.71l1.833-3.667a11.293 11.293 0 0 0 3.227 1.98 8.769 8.769 0 0 0 3.294.77 3.056 3.056 0 0 0 1.656-.385 1.259 1.259 0 0 0 .611-1.131 1.338 1.338 0 0 0-.471-1.057 3.306 3.306 0 0 0-1.124-.611c-.471-.177-1.082-.373-1.913-.611A22.782 22.782 0 0 1 4.058 9.96a5.329 5.329 0 0 1-2.066-1.589 4.4 4.4 0 0 1-.862-2.829 4.95 4.95 0 0 1 .886-2.927A5.616 5.616 0 0 1 4.534.677 9.778 9.778 0 0 1 8.317 0a13.836 13.836 0 0 1 3.856.55 12.833 12.833 0 0 1 3.337 1.478l-1.772 3.746a16.011 16.011 0 0 0-3.068-1.388zM66.281.353H58.52v17.979h7.58a11.116 11.116 0 0 0 5.1-1.124 8.293 8.293 0 0 0 3.441-3.153 9.02 9.02 0 0 0 1.222-4.7 9.087 9.087 0 0 0-1.222-4.687A8.342 8.342 0 0 0 71.256 1.5 10.664 10.664 0 0 0 66.275.353zm.128 14.2h-3.177V4.166h2.952a4.84 4.84 0 0 1 2.518.66 4.6 4.6 0 0 1 1.729 1.834 5.671 5.671 0 0 1 .611 2.719 5.873 5.873 0 0 1-.611 2.695 4.351 4.351 0 0 1-1.644 1.833 4.541 4.541 0 0 1-2.383.648zm13-.4a2.139 2.139 0 0 0-1.583.611 2.4 2.4 0 0 0 0 3.2 2.084 2.084 0 0 0 1.564.611 2.121 2.121 0 0 0 1.595-.611 2.206 2.206 0 0 0 .611-1.607 2.108 2.108 0 0 0-2.206-2.206zm-22.24-4.835a9.124 9.124 0 0 1-4.761 8.14 10.059 10.059 0 0 1-4.974 1.222 10.175 10.175 0 0 1-4.968-1.222 9.057 9.057 0 0 1-3.489-3.367 9.234 9.234 0 0 1-1.271-4.785 8.953 8.953 0 0 1 4.761-8.024 10.817 10.817 0 0 1 9.943 0 8.953 8.953 0 0 1 4.761 8.036zm-4.938 2.561l-4.112-7.334a.788.788 0 0 0-1.369 0l-4.107 7.333a.794.794 0 0 0 0 .782.77.77 0 0 0 .678.385h8.226a.77.77 0 0 0 .678-.385.794.794 0 0 0 .006-.782zM36.343 9.251a9.106 9.106 0 0 1-4.761 8.14 10.034 10.034 0 0 1-4.968 1.222 10.077 10.077 0 0 1-4.968-1.222 9 9 0 0 1-3.483-3.337 9.167 9.167 0 0 1-1.271-4.791 8.953 8.953 0 0 1 4.761-8.042 10.709 10.709 0 0 1 9.937 0 8.953 8.953 0 0 1 4.761 8.036zM31.4 11.818l-4.1-7.3a.782.782 0 0 0-1.369 0l-4.107 7.333a.782.782 0 0 0 .684 1.167h8.213a.782.782 0 0 0 .678-.385.794.794 0 0 0 .006-.813z" transform="translate(416 161.161)"/>
    </g>
</svg>